<?xml version="1.0" encoding="UTF-8" standalone="no"?>
<!DOCTYPE svg PUBLIC "-//W3C//DTD SVG 1.1//EN"
 "http://www.w3.org/Graphics/SVG/1.1/DTD/svg11.dtd">
<!-- Generated by graphviz version 2.43.0 (0)
 -->
<!-- Title: %3 Pages: 1 -->
<svg width="686pt" height="510pt"
 viewBox="0.00 0.00 685.90 510.00" xmlns="http://www.w3.org/2000/svg" xmlns:xlink="http://www.w3.org/1999/xlink">
<g id="graph0" class="graph" transform="scale(1 1) rotate(0) translate(4 506)">
<title>%3</title>
<polygon fill="white" stroke="transparent" points="-4,4 -4,-506 681.9,-506 681.9,4 -4,4"/>
<g id="clust1" class="cluster">
<title>cluster_client</title>
<path fill="none" stroke="black" d="M231.9,-419C231.9,-419 297.9,-419 297.9,-419 303.9,-419 309.9,-425 309.9,-431 309.9,-431 309.9,-482 309.9,-482 309.9,-488 303.9,-494 297.9,-494 297.9,-494 231.9,-494 231.9,-494 225.9,-494 219.9,-488 219.9,-482 219.9,-482 219.9,-431 219.9,-431 219.9,-425 225.9,-419 231.9,-419"/>
<text text-anchor="middle" x="264.9" y="-478.8" font-family="Times,serif" font-size="14.00">Client</text>
</g>
<g id="clust2" class="cluster">
<title>cluster_jupyter</title>
<path fill="none" stroke="black" d="M96.9,-311C96.9,-311 172.9,-311 172.9,-311 178.9,-311 184.9,-317 184.9,-323 184.9,-323 184.9,-374 184.9,-374 184.9,-380 178.9,-386 172.9,-386 172.9,-386 96.9,-386 96.9,-386 90.9,-386 84.9,-380 84.9,-374 84.9,-374 84.9,-323 84.9,-323 84.9,-317 90.9,-311 96.9,-311"/>
<text text-anchor="middle" x="134.9" y="-370.8" font-family="Times,serif" font-size="14.00">Jupyter Lab</text>
</g>
<g id="clust3" class="cluster">
<title>cluster_spark</title>
<path fill="none" stroke="black" d="M127.9,-116C127.9,-116 266.9,-116 266.9,-116 272.9,-116 278.9,-122 278.9,-128 278.9,-128 278.9,-266 278.9,-266 278.9,-272 272.9,-278 266.9,-278 266.9,-278 127.9,-278 127.9,-278 121.9,-278 115.9,-272 115.9,-266 115.9,-266 115.9,-128 115.9,-128 115.9,-122 121.9,-116 127.9,-116"/>
<text text-anchor="middle" x="197.4" y="-262.8" font-family="Times,serif" font-size="14.00">Spark cluster</text>
</g>
<g id="clust4" class="cluster">
<title>cluster_hdfs</title>
<path fill="none" stroke="black" d="M34.9,-8C34.9,-8 218.9,-8 218.9,-8 224.9,-8 230.9,-14 230.9,-20 230.9,-20 230.9,-71 230.9,-71 230.9,-77 224.9,-83 218.9,-83 218.9,-83 34.9,-83 34.9,-83 28.9,-83 22.9,-77 22.9,-71 22.9,-71 22.9,-20 22.9,-20 22.9,-14 28.9,-8 34.9,-8"/>
<text text-anchor="middle" x="126.9" y="-67.8" font-family="Times,serif" font-size="14.00">HDFS</text>
</g>
<!-- browser -->
<g id="node1" class="node">
<title>browser</title>
<path fill="none" stroke="black" d="M290.4,-463C290.4,-463 239.4,-463 239.4,-463 233.4,-463 227.4,-457 227.4,-451 227.4,-451 227.4,-439 227.4,-439 227.4,-433 233.4,-427 239.4,-427 239.4,-427 290.4,-427 290.4,-427 296.4,-427 302.4,-433 302.4,-439 302.4,-439 302.4,-451 302.4,-451 302.4,-457 296.4,-463 290.4,-463"/>
<text text-anchor="middle" x="264.9" y="-441.3" font-family="Times,serif" font-size="14.00">browser</text>
</g>
<!-- jupyter -->
<g id="node2" class="node">
<title>jupyter</title>
<path fill="none" stroke="black" d="M156.9,-355C156.9,-355 112.9,-355 112.9,-355 106.9,-355 100.9,-349 100.9,-343 100.9,-343 100.9,-331 100.9,-331 100.9,-325 106.9,-319 112.9,-319 112.9,-319 156.9,-319 156.9,-319 162.9,-319 168.9,-325 168.9,-331 168.9,-331 168.9,-343 168.9,-343 168.9,-349 162.9,-355 156.9,-355"/>
<text text-anchor="middle" x="134.9" y="-333.3" font-family="Times,serif" font-size="14.00">jupyter</text>
</g>
<!-- browser&#45;&gt;jupyter -->
<g id="edge1" class="edge">
<title>browser&#45;&gt;jupyter</title>
<path fill="none" stroke="black" d="M227.31,-439.08C192.77,-433.69 145.26,-423.8 133.9,-409 124.48,-396.73 124.54,-379.42 127.04,-364.96"/>
<polygon fill="black" stroke="black" points="130.49,-365.57 129.2,-355.06 123.65,-364.08 130.49,-365.57"/>
<text text-anchor="middle" x="192.4" y="-397.8" font-family="Times,serif" font-size="14.00">notebook (8888)</text>
</g>
<!-- master -->
<g id="node3" class="node">
<title>master</title>
<path fill="none" stroke="black" d="M179.4,-247C179.4,-247 136.4,-247 136.4,-247 130.4,-247 124.4,-241 124.4,-235 124.4,-235 124.4,-223 124.4,-223 124.4,-217 130.4,-211 136.4,-211 136.4,-211 179.4,-211 179.4,-211 185.4,-211 191.4,-217 191.4,-223 191.4,-223 191.4,-235 191.4,-235 191.4,-241 185.4,-247 179.4,-247"/>
<text text-anchor="middle" x="157.9" y="-225.3" font-family="Times,serif" font-size="14.00">master</text>
</g>
<!-- browser&#45;&gt;master -->
<g id="edge2" class="edge">
<title>browser&#45;&gt;master</title>
<path fill="none" stroke="black" d="M268.12,-426.76C272.91,-395.91 278.63,-330.37 250.9,-286 239.37,-267.54 219.31,-254.34 200.77,-245.41"/>
<polygon fill="black" stroke="black" points="202.11,-242.17 191.55,-241.24 199.23,-248.55 202.11,-242.17"/>
<text text-anchor="middle" x="347.4" y="-333.3" font-family="Times,serif" font-size="14.00">Spark console (8080)</text>
</g>
<!-- namenode -->
<g id="node5" class="node">
<title>namenode</title>
<path fill="none" stroke="black" d="M210.9,-52C210.9,-52 144.9,-52 144.9,-52 138.9,-52 132.9,-46 132.9,-40 132.9,-40 132.9,-28 132.9,-28 132.9,-22 138.9,-16 144.9,-16 144.9,-16 210.9,-16 210.9,-16 216.9,-16 222.9,-22 222.9,-28 222.9,-28 222.9,-40 222.9,-40 222.9,-46 216.9,-52 210.9,-52"/>
<text text-anchor="middle" x="177.9" y="-30.3" font-family="Times,serif" font-size="14.00">namenode</text>
</g>
<!-- browser&#45;&gt;namenode -->
<g id="edge3" class="edge">
<title>browser&#45;&gt;namenode</title>
<path fill="none" stroke="black" d="M302.61,-439.82C339,-433.87 393.37,-419.64 426.9,-386 442.88,-369.97 443.9,-360.63 443.9,-338 443.9,-338 443.9,-338 443.9,-141 443.9,-116.9 441.35,-106.51 422.9,-91 394.58,-67.2 296.3,-50.36 233.15,-41.7"/>
<polygon fill="black" stroke="black" points="233.33,-38.19 222.95,-40.33 232.4,-45.13 233.33,-38.19"/>
<text text-anchor="middle" x="560.9" y="-225.3" font-family="Times,serif" font-size="14.00">HDFS File System Utility (9870)</text>
</g>
<!-- jupyter&#45;&gt;master -->
<g id="edge4" class="edge">
<title>jupyter&#45;&gt;master</title>
<path fill="none" stroke="black" d="M137.21,-318.79C138.62,-309.11 140.59,-296.83 142.9,-286 144.95,-276.42 147.61,-266.02 150.12,-256.82"/>
<polygon fill="black" stroke="black" points="153.53,-257.62 152.85,-247.05 146.79,-255.74 153.53,-257.62"/>
<text text-anchor="middle" x="196.9" y="-289.8" font-family="Times,serif" font-size="14.00">send programs</text>
</g>
<!-- worker -->
<g id="node4" class="node">
<title>worker</title>
<path fill="none" stroke="black" d="M179.4,-160C179.4,-160 136.4,-160 136.4,-160 130.4,-160 124.4,-154 124.4,-148 124.4,-148 124.4,-136 124.4,-136 124.4,-130 130.4,-124 136.4,-124 136.4,-124 179.4,-124 179.4,-124 185.4,-124 191.4,-130 191.4,-136 191.4,-136 191.4,-148 191.4,-148 191.4,-154 185.4,-160 179.4,-160"/>
<text text-anchor="middle" x="157.9" y="-138.3" font-family="Times,serif" font-size="14.00">worker</text>
</g>
<!-- master&#45;&gt;worker -->
<g id="edge5" class="edge">
<title>master&#45;&gt;worker</title>
<path fill="none" stroke="black" d="M157.9,-210.8C157.9,-199.16 157.9,-183.55 157.9,-170.24"/>
<polygon fill="black" stroke="black" points="161.4,-170.18 157.9,-160.18 154.4,-170.18 161.4,-170.18"/>
<text text-anchor="middle" x="222.4" y="-181.8" font-family="Times,serif" font-size="14.00">process programs</text>
</g>
<!-- worker&#45;&gt;namenode -->
<g id="edge6" class="edge">
<title>worker&#45;&gt;namenode</title>
<path fill="none" stroke="black" d="M161.12,-123.97C164.25,-107.38 169.06,-81.88 172.73,-62.43"/>
<polygon fill="black" stroke="black" points="176.22,-62.82 174.63,-52.34 169.34,-61.52 176.22,-62.82"/>
<text text-anchor="middle" x="293.4" y="-94.8" font-family="Times,serif" font-size="14.00">query which node has the partition</text>
</g>
<!-- datanode -->
<g id="node6" class="node">
<title>datanode</title>
<path fill="none" stroke="black" d="M102.4,-52C102.4,-52 43.4,-52 43.4,-52 37.4,-52 31.4,-46 31.4,-40 31.4,-40 31.4,-28 31.4,-28 31.4,-22 37.4,-16 43.4,-16 43.4,-16 102.4,-16 102.4,-16 108.4,-16 114.4,-22 114.4,-28 114.4,-28 114.4,-40 114.4,-40 114.4,-46 108.4,-52 102.4,-52"/>
<text text-anchor="middle" x="72.9" y="-30.3" font-family="Times,serif" font-size="14.00">datanode</text>
</g>
<!-- worker&#45;&gt;datanode -->
<g id="edge7" class="edge">
<title>worker&#45;&gt;datanode</title>
<path fill="none" stroke="black" d="M124.36,-138.12C83.93,-133.88 19.55,-124.38 4.9,-106 -8.75,-88.87 8.37,-71.08 28.84,-57.59"/>
<polygon fill="black" stroke="black" points="30.77,-60.51 37.42,-52.27 27.08,-54.56 30.77,-60.51"/>
<text text-anchor="middle" x="83.4" y="-94.8" font-family="Times,serif" font-size="14.00">read/write actual files</text>
</g>
</g>
</svg>
